<svg width="1470" height="980" viewBox="0 0 1470 980" fill="none" xmlns="http://www.w3.org/2000/svg">
<defs>
<linearGradient id="gradient" x1="0%" y1="0%" x2="100%" y2="100%">
<stop offset="0%" style="stop-color:#10c981;stop-opacity:1" />
<stop offset="100%" style="stop-color:#059669;stop-opacity:1" />
</linearGradient>
</defs>
<rect width="1470" height="980" fill="url(#gradient)"/>
<circle cx="200" cy="200" r="50" fill="rgba(255,255,255,0.2)" />
<circle cx="400" cy="150" r="40" fill="rgba(255,255,255,0.15)" />
<circle cx="600" cy="180" r="45" fill="rgba(255,255,255,0.2)" />
<circle cx="800" cy="160" r="35" fill="rgba(255,255,255,0.15)" />
<circle cx="1000" cy="190" r="50" fill="rgba(255,255,255,0.2)" />
<circle cx="1200" cy="170" r="40" fill="rgba(255,255,255,0.15)" />

<!-- Lignes de connexion -->
<line x1="200" y1="200" x2="400" y2="150" stroke="rgba(255,255,255,0.3)" stroke-width="2"/>
<line x1="400" y1="150" x2="600" y2="180" stroke="rgba(255,255,255,0.3)" stroke-width="2"/>
<line x1="600" y1="180" x2="800" y2="160" stroke="rgba(255,255,255,0.3)" stroke-width="2"/>
<line x1="800" y1="160" x2="1000" y2="190" stroke="rgba(255,255,255,0.3)" stroke-width="2"/>
<line x1="1000" y1="190" x2="1200" y2="170" stroke="rgba(255,255,255,0.3)" stroke-width="2"/>

<!-- Icônes réseau -->
<g transform="translate(300, 400)">
<circle cx="0" cy="0" r="80" fill="rgba(255,255,255,0.1)" />
<rect x="-20" y="-20" width="40" height="40" fill="white" opacity="0.8" rx="5"/>
<circle cx="-10" cy="-10" r="3" fill="#10c981"/>
<circle cx="10" cy="-10" r="3" fill="#10c981"/>
<circle cx="0" cy="10" r="3" fill="#10c981"/>
</g>

<g transform="translate(800, 500)">
<circle cx="0" cy="0" r="80" fill="rgba(255,255,255,0.1)" />
<rect x="-20" y="-20" width="40" height="40" fill="white" opacity="0.8" rx="5"/>
<circle cx="-10" cy="-10" r="3" fill="#10c981"/>
<circle cx="10" cy="-10" r="3" fill="#10c981"/>
<circle cx="0" cy="10" r="3" fill="#10c981"/>
</g>

<g transform="translate(1100, 600)">
<circle cx="0" cy="0" r="80" fill="rgba(255,255,255,0.1)" />
<rect x="-20" y="-20" width="40" height="40" fill="white" opacity="0.8" rx="5"/>
<circle cx="-10" cy="-10" r="3" fill="#10c981"/>
<circle cx="10" cy="-10" r="3" fill="#10c981"/>
<circle cx="0" cy="10" r="3" fill="#10c981"/>
</g>

<text x="735" y="500" text-anchor="middle" fill="white" font-family="Arial, sans-serif" font-size="48" font-weight="bold">Solutions Réseaux</text>
<text x="735" y="560" text-anchor="middle" fill="white" font-family="Arial, sans-serif" font-size="24" opacity="0.9">Infrastructure et sécurité IT</text>
</svg>

